<svg class="product-logo-icon" version="1.1" id="Layer_1" xmlns="http://www.w3.org/2000/svg" x="0px" y="0px" width="1245.4px" height="261.8px" fill="#FFFFFF" viewBox="-366.7 125.1 1245.4 261.8" enable-background="new -366.7 125.1 1245.4 261.8">
    <symbol id="logo_globoplay" viewBox="-366.7 125.1 1245.4 261.8">
        <path d="M597.308,342.398c14.949,0,26.807-12.027,35.913-34.817l36.454-90.583c0.548-1.455,0.734-2.37,0.734-3.645 c0-3.096-2.372-4.92-6.565-4.92h-14.039c-4.193,0-6.923,1.823-8.387,6.017l-19.502,57.959l-22.787-57.959 c-1.643-4.193-4.368-6.017-8.57-6.017h-14.218c-6.014,0-7.651,4.19-5.646,8.746l38.277,84.391l-2.734,6.021 c-3.829,8.197-7.47,11.669-11.842,11.669c-3.281,0-5.837-1.645-7.843-2.92c-3.83-2.551-7.286-1.457-9.664,1.639l-4.376,5.653 c-3.097,3.824-2.728,6.924,1.28,10.563C579.633,339.485,585.28,342.398,597.308,342.398"></path>
        <path d="M523.85,206.243c-15.125,0-26.794,2.367-38.273,10.572c-4.558,3.279-3.65,6.381-1.096,10.207l3.462,5.106 c2.553,3.826,6.198,3.464,10.395,1.279c7.47-4.009,14.4-5.286,21.871-5.286c13.119,0,21.514,6.742,21.514,21.324v1.282 c-7.66-2.916-16.411-4.195-26.068-4.195c-27.348,0-38.639,14.761-38.639,29.706c0,14.764,9.841,28.989,34.45,28.989 c15.677,0,26.245-6.753,32.627-15.498c0.369,2.727,0.734,5.286,1.281,8.024c0.719,3.817,3.642,5.28,7.835,5.28h6.749 c4.548,0,7.291-2.731,7.291-7.289v-44.84C567.239,219.911,548.094,206.243,523.85,206.243 M516.015,285.347 c-8.02,0-13.67-3.275-13.67-10.39c0-7.468,5.286-11.3,17.865-11.3c7.656,0,14.037,1.096,20.413,2.554 C538.795,278.607,530.232,285.347,516.015,285.347"></path>
        <path d="M446.684,304.557l12.347-4.791c4.628-1.774,6.858-4.97,6.858-10.108V184.439 c0-5.148-2.236-8.34-6.858-10.111l-12.347-4.796c-4.972-1.95-8.23,0.54-8.23,6.035v122.955 C438.456,304.027,441.714,306.505,446.684,304.557"></path>
        <path d="M384.595,206.243c-13.126,0-24.428,5.837-32.269,15.125c-0.177-2.367-0.543-4.918-1.275-7.281 c-1.092-3.831-3.643-5.655-7.84-5.655h-9.119c-4.548,0-7.282,2.551-7.282,7.477v118.474c0,4.745,2.729,7.293,7.282,7.293h12.765 c4.554,0,7.288-2.548,7.288-7.293v-41.734c7.294,7.829,17.134,12.581,29.711,12.581c26.617,0,44.113-20.413,44.113-49.4 C427.977,227.205,411.567,206.243,384.595,206.243 M378.21,281.885c-12.76,0-24.055-7.656-24.055-24.973v-3.462 c0-15.128,10.572-23.876,24.421-23.876c12.031,0,22.051,7.842,22.051,26.611C400.635,274.956,389.877,281.885,378.21,281.885"></path>
        <path d="M266.292,206.243c-30.625,0-50.669,22.968-50.669,49.398c0,27.706,19.138,49.579,50.669,49.579 c30.441,0,50.134-23.331,50.134-49.579C316.425,228.296,297.281,206.243,266.292,206.243 M266.117,281.885 c-15.859,0-23.154-12.58-23.154-26.244c0-13.304,7.291-26.068,23.34-26.068c15.673,0,22.779,12.399,22.779,26.068 C289.081,269.307,281.975,281.885,266.117,281.885"></path>
        <path d="M163.859,206.243c-12.215,0-22.968,4.925-30.623,13.306v-43.2c0-4.737-2.738-7.289-7.475-7.289H113.18 c-4.369,0-7.29,2.554-7.29,7.289v119.393c0,4.554,2.922,7.289,7.29,7.289h8.387c4.374,0,7.289-1.646,8.387-6.192 c0.543-2.19,0.727-4.195,1.09-6.386c7.293,9.119,18.047,14.772,31.717,14.772c26.796,0,44.107-20.42,44.107-49.212 C206.877,227.387,190.468,206.243,163.859,206.243 M157.112,281.885c-12.759,0-23.877-7.475-23.877-24.973v-3.462 c0-15.128,10.391-23.876,24.425-23.876c11.846,0,21.874,8.023,21.874,26.611C179.534,275.138,168.958,281.885,157.112,281.885"></path>
        <path d="M45.193,206.243c-30.622,0-50.668,22.968-50.668,49.398c0,27.706,19.138,49.579,50.668,49.579 c30.445,0,50.122-23.331,50.122-49.579C95.319,228.296,76.365,206.243,45.193,206.243 M45.01,281.885 c-15.858,0-23.149-12.58-23.149-26.244c0-13.304,7.292-26.068,23.331-26.068c15.68,0,22.79,12.399,22.79,26.068 C67.981,269.307,60.873,281.885,45.01,281.885"></path>
        <path d="M-35.917,303.026h12.581c4.74,0,7.29-2.733,7.29-7.288V176.352c0-4.741-2.553-7.293-7.29-7.293h-12.581 c-4.738,0-7.474,2.554-7.474,7.293v119.391C-43.391,300.292-40.655,303.026-35.917,303.026"></path>
        <path d="M-65.441,208.431h-8.387c-4.374,0-7.473,1.824-8.386,5.836c-0.543,2.37-0.543,4.01-0.728,5.836 c-7.472-8.387-17.683-13.854-31.171-13.854c-24.793,0-44.294,18.771-44.294,47.572c0,28.252,18.048,46.298,43.2,46.298 c12.941,0,23.146-4.741,30.254-12.764v6.928c0,16.773-10.023,25.335-28.979,25.335c-11.12,0-18.958-3.456-26.976-8.015 c-1.644-0.913-3.279-1.646-4.74-1.646c-2.191,0-4.013,1.098-5.469,3.47l-4.376,6.746c-1.096,1.638-1.64,3.101-1.64,4.743 c0,1.823,1.091,3.642,3.279,5.281c12.395,9.302,26.611,12.936,43.75,12.936c31.899,0,51.941-21.871,51.941-49.748v-77.659 C-58.154,210.981-60.71,208.431-65.441,208.431 M-84.956,254.914c0,14.937-10.571,23.33-24.603,23.33 c-11.849,0-21.514-8.027-21.514-24.793c0-17.5,10.757-24.244,22.244-24.244c12.576,0,23.872,7.109,23.872,24.244L-84.956,254.914 L-84.956,254.914z"></path>
    </symbol>
</svg>